<?xml version="1.0" encoding="utf-8"?>
<!-- Generator: Adobe Illustrator 19.2.1, SVG Export Plug-In . SVG Version: 6.00 Build 0)  -->
<svg version="1.1" id="layer" xmlns="http://www.w3.org/2000/svg" xmlns:xlink="http://www.w3.org/1999/xlink" x="0px" y="0px"
	 viewBox="0 0 652 652" style="enable-background:new 0 0 652 652;" xml:space="preserve">
<style type="text/css">
	.st0{fill:#231815;}
</style>
<g>
	<path class="st0" d="M58.4,360.8L73,340.6h32.6l-20.2-28l-35.2,48.3h-30l50-69.4c1.6-2.3,3.8-4.3,6.6-6.1c3.1-1.9,6.1-2.8,9-2.8
		c3,0,5.9,0.9,9,2.8c2.7,1.7,4.8,3.7,6.5,6.1l48.8,69.4H58.4z"/>
	<path class="st0" d="M245.4,340.7l-15.6,20.1h-39.2c-13.6,0-24.8-3.8-33.7-11.3c-8.9-7.5-13.4-17-13.4-28.4
		c0-11.4,4.4-20.6,13.2-27.7c8.8-7.1,20.1-10.6,33.9-10.6h54.7L229.8,303h-39.2c-6.6,0-12.1,1.8-16.4,5.4c-4.3,3.6-6.5,8.1-6.5,13.7
		c0,5.5,2.2,10,6.5,13.4c4.3,3.5,9.8,5.2,16.4,5.2H245.4z"/>
	<polygon class="st0" points="339.8,282.8 324.1,303 300.7,303 300.7,360.8 276.5,360.8 276.5,303 244.3,303 259.9,282.8 	"/>
	<rect x="346.6" y="282.8" class="st0" width="24.1" height="78"/>
	<path class="st0" d="M497.6,321.1c0,11.4-4.5,20.9-13.4,28.4c-8.9,7.5-20.1,11.3-33.7,11.3h-23.5c-13.6,0-24.9-3.8-33.8-11.3
		c-8.9-7.5-13.4-17-13.4-28.4c0-11.4,4.4-20.6,13.3-27.7c8.8-7.1,20.1-10.6,33.9-10.6h23.5c13.8,0,25.1,3.5,33.9,10.6
		C493.2,300.5,497.6,309.7,497.6,321.1 M450.6,303h-23.5c-6.7,0-12.2,1.8-16.6,5.4s-6.5,8.1-6.5,13.7c0,5.6,2.2,10,6.5,13.5
		c4.3,3.4,9.8,5.1,16.6,5.1h23.5c6.7,0,12.2-1.7,16.6-5.1c4.3-3.4,6.5-7.9,6.5-13.5c0-5.6-2.2-10.1-6.5-13.7
		C462.7,304.8,457.2,303,450.6,303"/>
	<path class="st0" d="M599.9,350.8c0,7.1-3.2,10.6-9.6,10.6c-4.6,0-9-1.7-13.2-5.2L531.4,318v42.8h-24.2v-68c0-2.9,0.9-5.3,2.8-7.1
		c1.8-1.9,4.5-2.8,7.8-2.8c4.4,0,8.5,1.6,12.2,4.7l45.7,38.2v-43h24.2V350.8z"/>
	<path class="st0" d="M612.7,282.6c4.2,0,7.5,3.3,7.5,7.4c0,4.2-3.3,7.4-7.5,7.4c-4.2,0-7.6-3.2-7.6-7.4
		C605.1,285.9,608.5,282.6,612.7,282.6L612.7,282.6z M612.6,284.1c-3.2,0-5.6,2.6-5.6,5.9c0,3.3,2.4,5.9,5.7,5.9
		c3.2,0,5.6-2.6,5.6-5.9C618.3,286.7,615.9,284.1,612.6,284.1L612.6,284.1z M611.5,293.8h-1.7v-7.3c0.7-0.1,1.6-0.3,2.8-0.3
		c1.4,0,2,0.2,2.6,0.6c0.4,0.3,0.7,0.9,0.7,1.6c0,0.9-0.6,1.5-1.5,1.8v0.1c0.7,0.2,1.1,0.8,1.3,1.8c0.2,1.1,0.4,1.6,0.5,1.8h-1.8
		c-0.2-0.3-0.4-0.9-0.6-1.8c-0.1-0.8-0.6-1.2-1.5-1.2h-0.8V293.8z M611.6,289.6h0.8c0.9,0,1.7-0.3,1.7-1.1c0-0.7-0.5-1.1-1.6-1.1
		c-0.4,0-0.8,0-0.9,0.1V289.6z"/>
</g>
</svg>
